<?xml version="1.0" encoding="UTF-8"?>
<svg xmlns="http://www.w3.org/2000/svg" xmlns:xlink="http://www.w3.org/1999/xlink" version="1.1" viewBox="0 0 256 256">
  <!-- Generator: Adobe Illustrator 29.8.2, SVG Export Plug-In . SVG Version: 2.1.1 Build 3)  -->
  <defs>
    <style>
      .st0 {
        stroke-width: 28px;
      }

      .st0, .st1, .st2, .st3 {
        stroke: #fff;
        stroke-miterlimit: 10;
      }

      .st0, .st3 {
        fill: none;
      }

      .st1 {
        stroke-width: 10px;
      }

      .st1, .st2 {
        fill: #fff;
      }

      .st2 {
        stroke-width: 5px;
      }

      .st4, .st3 {
        display: none;
      }

      .st3 {
        stroke-width: .5px;
      }
    </style>
  </defs>
  <g id="Layer_1" class="st4">
    <g id="_x31_I7jl0.tif">
      <image id="Layer_0" width="30" height="33" transform="translate(0 -.4) scale(.5)" xlink:href="favicon-1.png"/>
    </g>
  </g>
  <g id="Layer_2">
    <rect y="0" width="256" height="256"/>
    <g>
      <path class="st0" d="M113.1,52.9h-62.6c-10.5,0-19,8.5-19,19v73.6c0,10.5,8.5,19,19,19h0c14.7,0,23.8,16,16.3,28.6l-4.9,8.2,56.3-34.1c3-1.8,6.4-2.7,9.8-2.7h64.8c10.5,0,19-8.5,19-19v-7.1"/>
      <line class="st3" x1="112.8" y1="94" x2="112.8" y2="124.1"/>
      <line class="st3" x1="97.8" y1="109" x2="127.9" y2="109"/>
      <line class="st3" x1="190.1" y1="42.4" x2="190.1" y2="100.2"/>
      <line class="st3" x1="161.2" y1="71.3" x2="219" y2="71.3"/>
      <path class="st1" d="M217.8,59.1c-25.9,0-46.8,21.9-46.8,48.9,0-27-21.8-48.8-48.8-48.8,27,0,48.8-21.8,48.8-48.8,0,27,21.8,48.8,48.8,48.8"/>
      <path class="st2" d="M184,100.6c17,0,30.8,13.8,30.8,30.8,0-17,13.8-30.8,30.8-30.8-17,0-30.8-13.8-30.8-30.8,0,17-13.8,30.8-30.8,30.8Z"/>
    </g>
  </g>
</svg>